<svg width="68" height="68" viewBox="0 0 68 68" fill="none" xmlns="http://www.w3.org/2000/svg">
<g clip-path="url(#clip0_276_946)">
<path d="M57.2525 24.5556V23.9512C57.1237 18.8341 54.9757 13.9759 51.2775 10.437C47.5794 6.89803 42.6313 4.96587 37.5136 5.06228C33.7021 5.03118 29.9629 6.10215 26.7458 8.14632C23.5288 10.1905 20.971 13.1208 19.3802 16.5845C14.9013 17.0841 10.7616 19.2104 7.74634 22.5598C4.73113 25.9093 3.0502 30.249 3.02246 34.7556C3.02741 37.1435 3.50296 39.5069 4.4219 41.7109C5.34085 43.9149 6.68518 45.9161 8.37803 47.6002C10.0709 49.2843 12.0791 50.6182 14.2878 51.5257C16.4965 52.4331 18.8624 52.8964 21.2502 52.8889H28.3336V49.1112H21.2502C17.5993 48.9136 14.159 47.3393 11.6227 44.7056C9.08652 42.072 7.64298 38.5748 7.58308 34.919C7.52319 31.2632 8.8514 27.7206 11.3 25.0053C13.7486 22.2899 17.1355 20.6038 20.778 20.2867H22.0436L22.478 19.0967C23.6495 16.054 25.7269 13.4442 28.4293 11.62C31.1318 9.79589 34.329 8.8453 37.5891 8.89672C41.7051 8.80002 45.6925 10.3341 48.6822 13.1646C51.672 15.9952 53.4218 19.8927 53.5502 24.0078C53.5763 24.5112 53.5763 25.0156 53.5502 25.5189L53.3991 26.8789L54.6269 27.4456C57.0016 28.5154 58.9353 30.3705 60.1027 32.6987C61.2702 35.0269 61.6001 37.6862 61.037 40.2291C60.4738 42.772 59.052 45.0434 57.0108 46.661C54.9696 48.2787 52.4334 49.1439 49.8291 49.1112H39.6669V52.8889H49.8291C53.1885 52.913 56.4601 51.817 59.1269 49.7741C61.7938 47.7312 63.7038 44.8578 64.5553 41.6081C65.4067 38.3583 65.1509 34.9175 63.8284 31.8294C62.5059 28.7412 60.192 26.1818 57.2525 24.5556V24.5556Z" fill="#DCDCDC"/>
<path d="M42.0846 41.2721C42.4614 41.2781 42.8314 41.1713 43.147 40.9653C43.4626 40.7594 43.7094 40.4638 43.8556 40.1164C44.0018 39.7691 44.0408 39.386 43.9676 39.0164C43.8944 38.6467 43.7123 38.3074 43.4446 38.0421L34.0002 28.5977L24.5558 38.0421C24.2463 38.4034 24.0846 38.8683 24.103 39.3436C24.1213 39.819 24.3184 40.27 24.6548 40.6064C24.9912 40.9428 25.4422 41.1399 25.9175 41.1582C26.3929 41.1766 26.8577 41.0149 27.2191 40.7054L32.1113 35.8888V59.0277C32.1113 59.5286 32.3103 60.0091 32.6646 60.3633C33.0188 60.7175 33.4992 60.9165 34.0002 60.9165C34.5012 60.9165 34.9816 60.7175 35.3359 60.3633C35.6901 60.0091 35.8891 59.5286 35.8891 59.0277V35.8888L40.7435 40.7432C41.1031 41.0899 41.5853 41.28 42.0846 41.2721Z" fill="#DCDCDC"/>
</g>
<defs>
<clipPath id="clip0_276_946">
<rect width="68" height="68" fill="white"/>
</clipPath>
</defs>
</svg>
