<svg width="18" height="14" viewBox="0 0 18 14" fill="none" xmlns="http://www.w3.org/2000/svg">
<path d="M17.1208 1.13179C17.0094 1.00016 16.8731 0.891781 16.7197 0.812835C16.5664 0.73389 16.399 0.685928 16.2272 0.671688C16.0553 0.657448 15.8823 0.677211 15.7181 0.729846C15.5538 0.782481 15.4016 0.866957 15.27 0.97845L4.95174 9.71728L2.47241 5.50471C2.38493 5.35609 2.26904 5.22614 2.13135 5.12231C1.99366 5.01847 1.83686 4.94277 1.66992 4.89952C1.33275 4.81219 0.974699 4.86238 0.674533 5.03904C0.374368 5.2157 0.156675 5.50436 0.0693432 5.84153C-0.0179878 6.1787 0.0321969 6.53675 0.208858 6.83691L3.46429 12.3678C3.46429 12.3678 3.56023 12.5183 3.60843 12.5754C3.71987 12.707 3.85616 12.8155 4.00953 12.8945C4.16289 12.9735 4.33032 13.0215 4.50225 13.0357C4.67417 13.05 4.84722 13.0302 5.0115 12.9775C5.17578 12.9249 5.32807 12.8404 5.45966 12.7288L16.9675 2.9826C17.0991 2.87116 17.2075 2.73489 17.2864 2.58155C17.3654 2.42822 17.4133 2.26083 17.4276 2.08896C17.4418 1.91709 17.422 1.74409 17.3694 1.57986C17.3168 1.41562 17.2323 1.26337 17.1208 1.13179Z" fill="#007C88"/>
</svg>
